<svg width="19" height="19" viewBox="0 0 19 19" fill="none" xmlns="http://www.w3.org/2000/svg">
<g clip-path="url(#clip0)">
<path d="M17.2141 4.24685L16.7946 2.98933C16.6349 2.51039 16.1883 2.18858 15.6835 2.18858H12.1577V1.04066C12.1577 0.466911 11.6912 0 11.1176 0H7.88881C7.31535 0 6.84873 0.466911 6.84873 1.04066V2.18858H3.32305C2.81816 2.18858 2.37154 2.51039 2.2118 2.98933L1.79229 4.24685C1.69676 4.53314 1.74518 4.85017 1.92159 5.095C2.098 5.33984 2.38343 5.4861 2.68523 5.4861H3.12373L4.08886 17.4207C4.16062 18.3062 4.91208 19 5.79995 19H13.4023C14.29 19 15.0416 18.3062 15.1132 17.4205L16.0784 5.4861H16.3212C16.623 5.4861 16.9084 5.33984 17.0848 5.09515C17.2612 4.85031 17.3097 4.53314 17.2141 4.24685ZM7.96201 1.11328H11.0444V2.18858H7.96201V1.11328ZM14.0036 17.3308C13.9784 17.6426 13.7143 17.8867 13.4023 17.8867H5.79995C5.488 17.8867 5.22389 17.6426 5.19867 17.3308L4.24064 5.4861H14.9615L14.0036 17.3308ZM2.92398 4.37282L3.26796 3.34158C3.27579 3.31781 3.29797 3.30186 3.32305 3.30186H15.6835C15.7086 3.30186 15.7306 3.31781 15.7386 3.34158L16.0826 4.37282H2.92398Z" fill="#323232"/>
<path d="M12.2281 17.2914C12.238 17.292 12.2477 17.2921 12.2576 17.2921C12.5517 17.2921 12.7975 17.0616 12.8129 16.7645L13.3356 6.73013C13.3516 6.42311 13.1156 6.16117 12.8087 6.14523C12.5009 6.12885 12.2399 6.36513 12.2238 6.67215L11.7012 16.7065C11.6853 17.0135 11.9211 17.2754 12.2281 17.2914Z" fill="#323232"/>
<path d="M6.21824 16.7658C6.23448 17.0625 6.48004 17.2921 6.77358 17.2921C6.78372 17.2921 6.79416 17.2918 6.80445 17.2912C7.11133 17.2746 7.3466 17.0122 7.32993 16.7052L6.78242 6.67084C6.76575 6.36382 6.50337 6.12855 6.19635 6.14537C5.88947 6.16204 5.65421 6.42441 5.67088 6.73144L6.21824 16.7658Z" fill="#323232"/>
<path d="M9.5094 17.2921C9.81686 17.2921 10.066 17.0429 10.066 16.7355V6.70114C10.066 6.39368 9.81686 6.1445 9.5094 6.1445C9.20194 6.1445 8.95276 6.39368 8.95276 6.70114V16.7355C8.95276 17.0429 9.20194 17.2921 9.5094 17.2921Z" fill="#323232"/>
</g>
<defs>
<clipPath id="clip0">
<rect width="19" height="19" fill="white"/>
</clipPath>
</defs>
</svg>
