<svg width="19" height="19" viewBox="0 0 19 19" fill="none" xmlns="http://www.w3.org/2000/svg">
<g clip-path="url(#clip0)">
<path d="M18.4936 3.08348L15.9027 0.490395C15.2499 -0.162955 14.1143 -0.16421 13.459 0.49165L1.85226 12.2129C1.80081 12.2648 1.76368 12.3286 1.74344 12.3986L0.0162076 18.4492C-0.0268255 18.5999 0.0153575 18.7624 0.12628 18.8734C0.208501 18.9557 0.318573 19 0.431601 19C0.471233 19 0.511311 18.9945 0.550094 18.9835L6.5955 17.2548C6.66549 17.2345 6.72917 17.1974 6.78103 17.1459L18.4936 5.52803C18.82 5.20137 18.9996 4.76748 18.9996 4.30577C18.9996 3.84407 18.82 3.41013 18.4936 3.08348ZM11.5773 3.63279L13.1668 5.2223L4.86798 13.5211L4.2724 12.3296C4.199 12.1832 4.04974 12.0909 3.88611 12.0909H3.19459L11.5773 3.63279ZM1.06034 17.9394L1.6228 15.9704L3.02926 17.3769L1.06034 17.9394ZM6.04518 16.5153L3.97914 17.1055L1.89416 15.0205L2.48436 12.9545H3.61913L4.3634 14.4431C4.40514 14.5266 4.47303 14.5945 4.55655 14.6362L6.04514 15.3805V16.5153H6.04518ZM6.90884 15.8051V15.1136C6.90884 14.95 6.8165 14.8007 6.67015 14.7273L5.47858 14.1317L13.7774 5.83294L15.3669 7.42245L6.90884 15.8051ZM17.8843 4.92755L15.9802 6.81457L12.1851 3.01943L14.0709 1.1167C14.3973 0.790291 14.9657 0.790291 15.2921 1.1167L17.883 3.7076C18.0462 3.87078 18.136 4.08753 18.136 4.3182C18.136 4.54887 18.0462 4.76561 17.8843 4.92755Z" fill="#323232"/>
</g>
<defs>
<clipPath id="clip0">
<rect width="19" height="19" fill="white"/>
</clipPath>
</defs>
</svg>
