<svg width="195" height="49" viewBox="0 0 195 49" fill="none" xmlns="http://www.w3.org/2000/svg">
<g clip-path="url(#clip0)">
<path d="M35.2188 19.9064C35.2188 22.4395 37.2794 24.5001 39.8125 24.5001C42.3456 24.5001 44.4062 22.4395 44.4062 19.9064C44.4062 17.3733 42.3456 15.3127 39.8125 15.3127C37.2794 15.3127 35.2188 17.3733 35.2188 19.9064Z" fill="#1E8AF9"/>
<path d="M13.7709 27.5627C15.6341 27.5627 16.4192 27.1141 17.605 26.4352C19.1138 25.5738 20.9905 24.5001 24.4822 24.5001C27.9769 24.5001 29.855 25.5723 31.3639 26.4337C32.1632 26.8904 32.8024 27.2279 33.6877 27.4101V13.2715L37.6682 7.96295C38.6836 6.60961 38.4099 4.68956 37.0567 3.67579C35.7003 2.65743 33.7833 2.93859 32.7695 4.28736L28.1758 10.4123C27.778 10.9431 27.5627 11.5877 27.5627 12.2501V18.0133L10.3085 26.6404C11.2997 27.1961 12.1143 27.5627 13.7709 27.5627Z" fill="#1E8AF9"/>
<path d="M3.06253 33.6876C4.92575 33.6876 5.70931 34.1362 6.89515 34.8152C8.40244 35.6765 10.2791 36.7502 13.7709 36.7502C17.2626 36.7502 19.1377 35.6765 20.6466 34.8152C21.8339 34.1363 22.6175 33.6876 24.4822 33.6876C26.3514 33.6876 27.1379 34.1362 28.3283 34.8167C29.8371 35.678 31.7152 36.7502 35.21 36.7502C38.7047 36.7502 40.5828 35.678 42.0917 34.8167C43.282 34.1363 44.0685 33.6876 45.9377 33.6876C47.629 33.6876 49.0003 32.3163 49.0003 30.6251C49.0003 28.9339 47.629 27.5626 45.9377 27.5626C42.4431 27.5626 40.5649 28.6348 39.0561 29.4961C37.8657 30.1765 37.0792 30.6251 35.21 30.6251C33.3408 30.6251 32.5542 30.1765 31.3639 29.4961C29.8551 28.6348 27.9769 27.5626 24.4822 27.5626C20.9905 27.5626 19.1139 28.6363 17.605 29.4976C16.4191 30.1765 15.6341 30.6251 13.7709 30.6251C11.9076 30.6251 11.1226 30.1765 9.93674 29.4976C8.42945 28.6363 6.55277 27.5626 3.06253 27.5626C1.37129 27.5627 0 28.9339 0 30.6252C0 32.3165 1.37129 33.6876 3.06253 33.6876Z" fill="#1E8AF9"/>
<path d="M45.9376 36.7501C42.4429 36.7501 40.5647 37.8222 39.0559 38.6836C37.8655 39.3639 37.079 39.8126 35.2098 39.8126C33.3406 39.8126 32.554 39.364 31.3637 38.6836C29.8549 37.8222 27.9767 36.7501 24.482 36.7501C20.9904 36.7501 19.1137 37.8237 17.6048 38.6851C16.419 39.3639 15.6339 39.8126 13.7707 39.8126C11.9075 39.8126 11.1224 39.364 9.93656 38.6851C8.42927 37.8237 6.55259 36.7501 3.06234 36.7501C1.37129 36.7501 0 38.1213 0 39.8126C0 41.5038 1.37129 42.8751 3.06253 42.8751C4.92575 42.8751 5.70931 43.3237 6.89515 44.0026C8.40244 44.864 10.2791 45.9376 13.7709 45.9376C17.2626 45.9376 19.1377 44.864 20.6466 44.0026C21.8339 43.3238 22.6175 42.8751 24.4822 42.8751C26.3514 42.8751 27.1379 43.3237 28.3283 44.0041C29.8371 44.8654 31.7152 45.9376 35.21 45.9376C38.7047 45.9376 40.5826 44.8654 42.0915 44.004C43.2818 43.3237 44.0684 42.875 45.9376 42.875C47.6288 42.875 49.0001 41.5037 49.0001 39.8125C49.0001 38.1213 47.6288 36.7501 45.9376 36.7501Z" fill="#1E8AF9"/>
</g>
<path d="M77.6992 26.6602V33H74.7344V15.9375H81.2617C83.168 15.9375 84.6797 16.4336 85.7969 17.4258C86.9219 18.418 87.4844 19.7305 87.4844 21.3633C87.4844 23.0352 86.9336 24.3359 85.832 25.2656C84.7383 26.1953 83.2031 26.6602 81.2266 26.6602H77.6992ZM77.6992 24.2812H81.2617C82.3164 24.2812 83.1211 24.0352 83.6758 23.543C84.2305 23.043 84.5078 22.3242 84.5078 21.3867C84.5078 20.4648 84.2266 19.7305 83.6641 19.1836C83.1016 18.6289 82.3281 18.3438 81.3438 18.3281H77.6992V24.2812ZM103.703 24.9141C103.703 26.5859 103.414 28.0547 102.836 29.3203C102.258 30.5781 101.43 31.5469 100.352 32.2266C99.2812 32.8984 98.0469 33.2344 96.6484 33.2344C95.2656 33.2344 94.0312 32.8984 92.9453 32.2266C91.8672 31.5469 91.0312 30.582 90.4375 29.332C89.8516 28.082 89.5547 26.6406 89.5469 25.0078V24.0469C89.5469 22.3828 89.8398 20.9141 90.4258 19.6406C91.0195 18.3672 91.8516 17.3945 92.9219 16.7227C94 16.043 95.2344 15.7031 96.625 15.7031C98.0156 15.7031 99.2461 16.0391 100.316 16.7109C101.395 17.375 102.227 18.3359 102.812 19.5938C103.398 20.8438 103.695 22.3008 103.703 23.9648V24.9141ZM100.738 24.0234C100.738 22.1328 100.379 20.6836 99.6602 19.6758C98.9492 18.668 97.9375 18.1641 96.625 18.1641C95.3438 18.1641 94.3398 18.668 93.6133 19.6758C92.8945 20.6758 92.5273 22.0938 92.5117 23.9297V24.9141C92.5117 26.7891 92.875 28.2383 93.6016 29.2617C94.3359 30.2852 95.3516 30.7969 96.6484 30.7969C97.9609 30.7969 98.9688 30.2969 99.6719 29.2969C100.383 28.2969 100.738 26.8359 100.738 24.9141V24.0234ZM120.273 24.9141C120.273 26.5859 119.984 28.0547 119.406 29.3203C118.828 30.5781 118 31.5469 116.922 32.2266C115.852 32.8984 114.617 33.2344 113.219 33.2344C111.836 33.2344 110.602 32.8984 109.516 32.2266C108.438 31.5469 107.602 30.582 107.008 29.332C106.422 28.082 106.125 26.6406 106.117 25.0078V24.0469C106.117 22.3828 106.41 20.9141 106.996 19.6406C107.59 18.3672 108.422 17.3945 109.492 16.7227C110.57 16.043 111.805 15.7031 113.195 15.7031C114.586 15.7031 115.816 16.0391 116.887 16.7109C117.965 17.375 118.797 18.3359 119.383 19.5938C119.969 20.8438 120.266 22.3008 120.273 23.9648V24.9141ZM117.309 24.0234C117.309 22.1328 116.949 20.6836 116.23 19.6758C115.52 18.668 114.508 18.1641 113.195 18.1641C111.914 18.1641 110.91 18.668 110.184 19.6758C109.465 20.6758 109.098 22.0938 109.082 23.9297V24.9141C109.082 26.7891 109.445 28.2383 110.172 29.2617C110.906 30.2852 111.922 30.7969 113.219 30.7969C114.531 30.7969 115.539 30.2969 116.242 29.2969C116.953 28.2969 117.309 26.8359 117.309 24.9141V24.0234ZM126.191 30.6328H133.938V33H123.227V15.9375H126.191V30.6328ZM155.348 27.3164C155.215 29.1523 154.535 30.5977 153.309 31.6523C152.09 32.707 150.48 33.2344 148.48 33.2344C146.293 33.2344 144.57 32.5 143.312 31.0312C142.062 29.5547 141.438 27.5312 141.438 24.9609V23.918C141.438 22.2773 141.727 20.832 142.305 19.582C142.883 18.332 143.707 17.375 144.777 16.7109C145.855 16.0391 147.105 15.7031 148.527 15.7031C150.496 15.7031 152.082 16.2305 153.285 17.2852C154.488 18.3398 155.184 19.8203 155.371 21.7266H151.855C151.77 20.625 151.461 19.8281 150.93 19.3359C150.406 18.8359 149.605 18.5859 148.527 18.5859C147.355 18.5859 146.477 19.0078 145.891 19.8516C145.312 20.6875 145.016 21.9883 145 23.7539V25.043C145 26.8867 145.277 28.2344 145.832 29.0859C146.395 29.9375 147.277 30.3633 148.48 30.3633C149.566 30.3633 150.375 30.1172 150.906 29.625C151.445 29.125 151.754 28.3555 151.832 27.3164H155.348ZM162.25 15.9375L166.633 28.3125L170.992 15.9375H175.609V33H172.082V28.3359L172.434 20.2852L167.828 33H165.414L160.82 20.2969L161.172 28.3359V33H157.656V15.9375H162.25ZM187.527 28.5234C187.527 27.8594 187.293 27.3516 186.824 27C186.355 26.6406 185.512 26.2656 184.293 25.875C183.074 25.4766 182.109 25.0859 181.398 24.7031C179.461 23.6562 178.492 22.2461 178.492 20.4727C178.492 19.5508 178.75 18.7305 179.266 18.0117C179.789 17.2852 180.535 16.7188 181.504 16.3125C182.48 15.9062 183.574 15.7031 184.785 15.7031C186.004 15.7031 187.09 15.9258 188.043 16.3711C188.996 16.8086 189.734 17.4297 190.258 18.2344C190.789 19.0391 191.055 19.9531 191.055 20.9766H187.539C187.539 20.1953 187.293 19.5898 186.801 19.1602C186.309 18.7227 185.617 18.5039 184.727 18.5039C183.867 18.5039 183.199 18.6875 182.723 19.0547C182.246 19.4141 182.008 19.8906 182.008 20.4844C182.008 21.0391 182.285 21.5039 182.84 21.8789C183.402 22.2539 184.227 22.6055 185.312 22.9336C187.312 23.5352 188.77 24.2812 189.684 25.1719C190.598 26.0625 191.055 27.1719 191.055 28.5C191.055 29.9766 190.496 31.1367 189.379 31.9805C188.262 32.8164 186.758 33.2344 184.867 33.2344C183.555 33.2344 182.359 32.9961 181.281 32.5195C180.203 32.0352 179.379 31.375 178.809 30.5391C178.246 29.7031 177.965 28.7344 177.965 27.6328H181.492C181.492 29.5156 182.617 30.457 184.867 30.457C185.703 30.457 186.355 30.2891 186.824 29.9531C187.293 29.6094 187.527 29.1328 187.527 28.5234Z" fill="black"/>
<defs>
<clipPath id="clip0">
<rect width="49" height="49" fill="white"/>
</clipPath>
</defs>
</svg>
