<svg width="145" height="49" xmlns="http://www.w3.org/2000/svg">
 <defs>
  <clipPath id="clip0">
   <rect id="svg_1" fill="white" height="49" width="49"/>
  </clipPath>
 </defs>
 <g>
  <title>background</title>
  <rect fill="none" id="canvas_background" height="51" width="147" y="-1" x="-1"/>
 </g>
 <g>
  <title>Layer 1</title>
  <g id="svg_2" clip-path="url(#clip0)">
   <path id="svg_3" fill="#1E8AF9" d="m35.488178,19.9064c0,2.5331 2.0606,4.5937 4.5937,4.5937c2.5331,0 4.5937,-2.0606 4.5937,-4.5937c0,-2.5331 -2.0606,-4.5937 -4.5937,-4.5937c-2.5331,0 -4.5937,2.0606 -4.5937,4.5937z"/>
   <path id="svg_4" fill="#1E8AF9" d="m14.040278,27.5627c1.8632,0 2.6482,-0.4486 3.8341,-1.1275c1.5088,-0.8614 3.3854,-1.9351 6.8772,-1.9351c3.4946,0 5.3728,1.0722 6.8817,1.9336c0.7992,0.4567 1.4385,0.7942 2.3237,0.9764l0,-14.1386l3.9806,-5.30855c1.0154,-1.35334 0.7417,-3.27339 -0.6116,-4.28716c-1.3563,-1.01836 -3.2734,-0.7372 -4.2871,0.61157l-4.5938,6.12494c-0.3978,0.5308 -0.613,1.1754 -0.613,1.8378l0,5.7632l-17.2542,8.6271c0.9912,0.5557 1.8058,0.9223 3.4624,0.9223z"/>
   <path id="svg_5" fill="#1E8AF9" d="m3.331908,33.6876c1.86322,0 2.64678,0.4486 3.83262,1.1276c1.50729,0.8613 3.38395,1.935 6.87575,1.935c3.4917,0 5.3668,-1.0737 6.8757,-1.935c1.1873,-0.6789 1.9709,-1.1276 3.8356,-1.1276c1.8692,0 2.6557,0.4486 3.8461,1.1291c1.5088,0.8613 3.3869,1.9335 6.8817,1.9335c3.4947,0 5.3728,-1.0722 6.8817,-1.9335c1.1903,-0.6804 1.9768,-1.1291 3.846,-1.1291c1.6913,0 3.0626,-1.3713 3.0626,-3.0625c0,-1.6912 -1.3713,-3.0625 -3.0626,-3.0625c-3.4946,0 -5.3728,1.0722 -6.8816,1.9335c-1.1904,0.6804 -1.9769,1.129 -3.8461,1.129c-1.8692,0 -2.6558,-0.4486 -3.8461,-1.129c-1.5088,-0.8613 -3.387,-1.9335 -6.8817,-1.9335c-3.4917,0 -5.3683,1.0737 -6.8772,1.935c-1.1859,0.6789 -1.9709,1.1275 -3.8341,1.1275c-1.8633,0 -2.6483,-0.4486 -3.83416,-1.1275c-1.50729,-0.8613 -3.38397,-1.935 -6.87421,-1.935c-1.69124,0.0001 -3.06253,1.3713 -3.06253,3.0626c0,1.6913 1.37129,3.0624 3.06253,3.0624z"/>
   <path id="svg_6" fill="#1E8AF9" d="m46.206978,36.7501c-3.4947,0 -5.3729,1.0721 -6.8817,1.9335c-1.1904,0.6803 -1.9769,1.129 -3.8461,1.129c-1.8692,0 -2.6558,-0.4486 -3.8461,-1.129c-1.5088,-0.8614 -3.387,-1.9335 -6.8817,-1.9335c-3.4916,0 -5.3683,1.0736 -6.8772,1.935c-1.1858,0.6788 -1.9709,1.1275 -3.8341,1.1275c-1.8632,0 -2.6483,-0.4486 -3.83414,-1.1275c-1.50729,-0.8614 -3.38397,-1.935 -6.87422,-1.935c-1.69105,0 -3.06234,1.3712 -3.06234,3.0625c0,1.6912 1.37129,3.0625 3.06253,3.0625c1.86322,0 2.64678,0.4486 3.83262,1.1275c1.50729,0.8614 3.38395,1.935 6.87575,1.935c3.4917,0 5.3668,-1.0736 6.8757,-1.935c1.1873,-0.6788 1.9709,-1.1275 3.8356,-1.1275c1.8692,0 2.6557,0.4486 3.8461,1.129c1.5088,0.8613 3.3869,1.9335 6.8817,1.9335c3.4947,0 5.3726,-1.0722 6.8815,-1.9336c1.1903,-0.6803 1.9769,-1.129 3.8461,-1.129c1.6912,0 3.0625,-1.3713 3.0625,-3.0625c0,-1.6912 -1.3713,-3.0624 -3.0625,-3.0624z"/>
  </g>
  <text style="cursor: move;" font-weight="bold" stroke="null" transform="matrix(1,0,0,1.0221362202339037,0,-0.4658767143042697) " xml:space="preserve" text-anchor="start" font-family="'Trebuchet MS', Gadget, sans-serif" font-size="24" id="svg_8" y="23.362683" x="52.648585" fill-opacity="null" stroke-opacity="null" stroke-width="0" fill="#000000">БАСЕЙН</text>
  <text style="cursor: move;" font-weight="bold" xml:space="preserve" text-anchor="start" font-family="'Trebuchet MS', Gadget, sans-serif" font-size="24" id="svg_10" y="43.747893" x="72.582546" fill-opacity="null" stroke-opacity="null" stroke-width="0" stroke="null" fill="#000000">ХДУ</text>
 </g>
</svg>