<svg width="20" height="20" viewBox="0 0 20 20" xmlns="http://www.w3.org/2000/svg">
<path d="M18.75 9.84379H16.7969V8.96875C16.7969 7.89527 16.0477 6.99176 15.0391 6.74117V0.585938C15.0391 0.262344 14.7767 0 14.4531 0H0.585938C0.262344 0 0 0.262344 0 0.585938V16.6406C0 16.9642 0.262344 17.2266 0.585938 17.2266H9.60938V17.7067C9.60938 18.9713 10.6398 20 11.9062 20H17.0391C18.3055 20 19.3359 18.9713 19.3359 17.7067V10.4297C19.3359 10.1061 19.0736 9.84379 18.75 9.84379ZM15.625 8.96875V9.84379H13.3203V8.96875C13.3203 8.34844 13.8372 7.84375 14.4727 7.84375C15.1081 7.84375 15.625 8.3484 15.625 8.96875ZM1.17188 16.0547V1.17188H13.8672V6.75141C12.8783 7.01539 12.1484 7.90918 12.1484 8.96871V9.84375H10.1953C9.87172 9.84375 9.60938 10.1061 9.60938 10.4297V16.0547H1.17188ZM18.1641 17.7067C18.1641 18.3251 17.6594 18.8281 17.0391 18.8281H11.9062C11.2859 18.8281 10.7812 18.3251 10.7812 17.7067V11.0157H12.1484V12.5586C12.1484 12.8822 12.4108 13.1445 12.7344 13.1445C13.058 13.1445 13.3203 12.8822 13.3203 12.5586V11.0157H15.625V12.5586C15.625 12.8822 15.8873 13.1445 16.2109 13.1445C16.5345 13.1445 16.7969 12.8822 16.7969 12.5586V11.0157H18.1641V17.7067Z" />
<path d="M4.09692 2.53043L3.43098 3.24578L3.38641 3.19035C3.18368 2.93813 2.81485 2.89793 2.56262 3.1007C2.3104 3.3034 2.27024 3.67223 2.47294 3.92446L2.94169 4.5077C3.04829 4.64028 3.20716 4.72004 3.37712 4.72621C3.38427 4.72645 3.39134 4.7266 3.39844 4.7266C3.56075 4.7266 3.71622 4.65918 3.82727 4.53992L4.95458 3.32899C5.17513 3.09215 5.16185 2.72137 4.92497 2.50086C4.68825 2.28035 4.31743 2.29359 4.09692 2.53043Z" />
<path d="M6.875 4.12109H12.1093C12.4329 4.12109 12.6953 3.85875 12.6953 3.53516C12.6953 3.21156 12.4329 2.94922 12.1093 2.94922H6.875C6.55141 2.94922 6.28906 3.21156 6.28906 3.53516C6.28906 3.85875 6.55141 4.12109 6.875 4.12109Z" />
<path d="M4.09692 6.08512L3.43098 6.80047L3.38641 6.74504C3.18368 6.49281 2.81485 6.45266 2.56262 6.65539C2.3104 6.85813 2.27024 7.22692 2.47294 7.47914L2.94169 8.06239C3.04829 8.19497 3.20716 8.27473 3.37712 8.2809C3.38427 8.28114 3.39134 8.2813 3.39844 8.2813C3.56075 8.2813 3.71622 8.21387 3.82727 8.09461L4.95458 6.88367C5.17513 6.64684 5.16185 6.27606 4.92497 6.05555C4.68825 5.83504 4.31743 5.84828 4.09692 6.08512Z" />
<path d="M6.875 7.67578H10.1562C10.4798 7.67578 10.7421 7.41344 10.7421 7.08984C10.7421 6.76625 10.4798 6.50391 10.1562 6.50391H6.875C6.55141 6.50391 6.28906 6.76625 6.28906 7.08984C6.28906 7.41344 6.55141 7.67578 6.875 7.67578Z" />
<path d="M4.09692 9.63981L3.43098 10.3552L3.38641 10.2997C3.18368 10.0475 2.81485 10.0073 2.56262 10.2101C2.3104 10.4128 2.27024 10.7816 2.47294 11.0338L2.94169 11.6171C3.04829 11.7497 3.20716 11.8294 3.37712 11.8356C3.38427 11.8358 3.39134 11.836 3.39844 11.836C3.56075 11.836 3.71622 11.7686 3.82727 11.6493L4.95458 10.4384C5.17513 10.2015 5.16185 9.83074 4.92497 9.61023C4.68825 9.38973 4.31743 9.40297 4.09692 9.63981Z" />
<path d="M7.85145 10.0586H6.875C6.55141 10.0586 6.28906 10.3209 6.28906 10.6445C6.28906 10.9681 6.55141 11.2305 6.875 11.2305H7.85145C8.17504 11.2305 8.43738 10.9681 8.43738 10.6445C8.43738 10.3209 8.17504 10.0586 7.85145 10.0586Z" />
</svg>
